<svg xmlns="http://www.w3.org/2000/svg" xmlns:xlink="http://www.w3.org/1999/xlink" width="500" zoomAndPan="magnify" viewBox="0 0 375 374.999991" height="500" preserveAspectRatio="xMidYMid meet" version="1.0"><path fill="#dde9f1" d="M 243.234375 358.089844 C 246.503906 356.996094 249.734375 355.8125 252.933594 354.53125 C 256.132812 353.253906 259.289062 351.878906 262.40625 350.414062 C 265.523438 348.949219 268.597656 347.390625 271.621094 345.746094 C 274.648438 344.101562 277.625 342.367188 280.546875 340.546875 C 283.472656 338.722656 286.339844 336.820312 289.152344 334.828125 C 291.964844 332.839844 294.714844 330.769531 297.40625 328.617188 C 300.097656 326.46875 302.722656 324.238281 305.28125 321.933594 C 307.84375 319.628906 310.332031 317.25 312.75 314.796875 C 315.171875 312.34375 317.515625 309.824219 319.789062 307.234375 C 322.0625 304.644531 324.253906 301.992188 326.371094 299.273438 C 328.488281 296.554688 330.519531 293.777344 332.472656 290.9375 C 334.425781 288.101562 336.292969 285.207031 338.078125 282.261719 C 339.859375 279.3125 341.554688 276.316406 343.160156 273.265625 C 344.765625 270.21875 346.28125 267.128906 347.707031 263.992188 C 349.132812 260.855469 350.464844 257.679688 351.703125 254.464844 C 352.941406 251.25 354.082031 248.003906 355.128906 244.71875 C 356.175781 241.4375 357.128906 238.128906 357.980469 234.792969 C 358.832031 231.453125 359.585938 228.09375 360.242188 224.710938 C 360.898438 221.332031 361.453125 217.933594 361.910156 214.515625 C 362.367188 211.101562 362.71875 207.679688 362.976562 204.242188 C 363.230469 200.808594 363.382812 197.367188 363.433594 193.921875 C 363.488281 190.476562 363.4375 187.035156 363.289062 183.59375 C 363.140625 180.152344 362.886719 176.71875 362.535156 173.289062 C 362.183594 169.863281 361.734375 166.449219 361.179688 163.050781 C 360.628906 159.648438 359.976562 156.269531 359.226562 152.90625 C 358.476562 149.542969 357.625 146.207031 356.679688 142.894531 C 355.734375 139.582031 354.6875 136.300781 353.550781 133.050781 C 352.410156 129.800781 351.175781 126.585938 349.847656 123.40625 C 348.519531 120.230469 347.097656 117.09375 345.585938 113.996094 C 344.070312 110.902344 342.46875 107.855469 340.777344 104.855469 C 339.085938 101.855469 337.304688 98.90625 335.441406 96.007812 C 333.574219 93.113281 331.625 90.273438 329.59375 87.492188 C 327.5625 84.710938 325.449219 81.992188 323.257812 79.335938 C 321.066406 76.675781 318.796875 74.085938 316.453125 71.5625 C 314.109375 69.039062 311.695312 66.582031 309.207031 64.203125 C 306.71875 61.820312 304.160156 59.511719 301.539062 57.28125 C 298.914062 55.046875 296.226562 52.894531 293.476562 50.820312 C 290.726562 48.746094 287.917969 46.753906 285.050781 44.84375 C 282.183594 42.9375 279.261719 41.113281 276.285156 39.375 C 273.3125 37.636719 270.289062 35.988281 267.21875 34.429688 C 264.144531 32.871094 261.03125 31.402344 257.875 30.023438 C 254.714844 28.648438 251.519531 27.363281 248.289062 26.175781 C 245.054688 24.984375 241.789062 23.890625 238.492188 22.894531 C 235.195312 21.898438 231.871094 21 228.519531 20.195312 C 225.171875 19.394531 221.800781 18.691406 218.40625 18.085938 C 215.015625 17.484375 211.609375 16.980469 208.1875 16.574219 C 204.769531 16.171875 201.339844 15.867188 197.898438 15.667969 C 194.460938 15.464844 191.019531 15.363281 187.574219 15.363281 C 184.128906 15.363281 180.6875 15.464844 177.246094 15.667969 C 173.808594 15.867188 170.378906 16.171875 166.957031 16.574219 C 163.535156 16.980469 160.128906 17.484375 156.738281 18.085938 C 153.347656 18.691406 149.976562 19.394531 146.625 20.195312 C 143.277344 21 139.953125 21.898438 136.65625 22.894531 C 133.359375 23.894531 130.09375 24.984375 126.859375 26.175781 C 123.625 27.363281 120.429688 28.648438 117.273438 30.023438 C 114.117188 31.402344 111 32.871094 107.929688 34.429688 C 104.859375 35.988281 101.835938 37.636719 98.859375 39.375 C 95.886719 41.113281 92.964844 42.9375 90.097656 44.84375 C 87.230469 46.753906 84.421875 48.746094 81.671875 50.820312 C 78.921875 52.894531 76.234375 55.046875 73.609375 57.28125 C 70.984375 59.511719 68.429688 61.820312 65.941406 64.203125 C 63.453125 66.582031 61.035156 69.039062 58.691406 71.5625 C 56.347656 74.085938 54.082031 76.675781 51.890625 79.335938 C 49.695312 81.992188 47.585938 84.710938 45.550781 87.492188 C 43.519531 90.273438 41.570312 93.113281 39.707031 96.007812 C 37.839844 98.90625 36.0625 101.855469 34.371094 104.855469 C 32.679688 107.855469 31.074219 110.902344 29.5625 113.996094 C 28.050781 117.09375 26.628906 120.230469 25.300781 123.40625 C 23.972656 126.585938 22.738281 129.800781 21.597656 133.050781 C 20.457031 136.300781 19.414062 139.582031 18.46875 142.894531 C 17.519531 146.207031 16.671875 149.542969 15.921875 152.90625 C 15.167969 156.269531 14.519531 159.648438 13.964844 163.050781 C 13.414062 166.449219 12.960938 169.863281 12.609375 173.292969 C 12.257812 176.71875 12.007812 180.152344 11.859375 183.59375 C 11.707031 187.035156 11.660156 190.476562 11.710938 193.921875 C 11.765625 197.367188 11.917969 200.808594 12.171875 204.242188 C 12.425781 207.679688 12.78125 211.101562 13.238281 214.515625 C 13.695312 217.933594 14.25 221.332031 14.90625 224.710938 C 15.558594 228.09375 16.3125 231.453125 17.167969 234.792969 C 18.019531 238.128906 18.96875 241.4375 20.015625 244.71875 C 21.066406 248.003906 22.207031 251.25 23.445312 254.464844 C 24.683594 257.679688 26.015625 260.855469 27.441406 263.992188 C 28.863281 267.128906 30.378906 270.21875 31.988281 273.265625 C 33.59375 276.316406 35.289062 279.3125 37.070312 282.261719 C 38.851562 285.207031 40.722656 288.101562 42.671875 290.9375 C 44.625 293.777344 46.660156 296.554688 48.777344 299.273438 C 50.890625 301.992188 53.085938 304.644531 55.359375 307.234375 C 57.628906 309.824219 59.976562 312.347656 62.394531 314.796875 C 64.816406 317.25 67.304688 319.628906 69.863281 321.933594 C 72.425781 324.238281 75.050781 326.46875 77.738281 328.617188 C 80.429688 330.769531 83.183594 332.839844 85.992188 334.828125 C 88.804688 336.820312 91.675781 338.722656 94.597656 340.546875 C 97.523438 342.367188 100.5 344.101562 103.523438 345.746094 C 106.550781 347.390625 109.621094 348.949219 112.738281 350.414062 C 115.855469 351.878906 119.015625 353.253906 122.210938 354.53125 C 125.410156 355.8125 128.644531 356.996094 131.910156 358.089844 C 140.734375 359.707031 143.898438 354.265625 143.898438 349.558594 C 143.898438 346.398438 143.898438 339.339844 143.898438 329.78125 C 143.886719 329.15625 143.8125 328.539062 143.671875 327.929688 C 143.53125 327.320312 143.328125 326.734375 143.0625 326.167969 C 142.800781 325.601562 142.480469 325.070312 142.105469 324.574219 C 141.726562 324.074219 141.304688 323.621094 140.832031 323.210938 C 140.359375 322.800781 139.851562 322.445312 139.304688 322.144531 C 138.757812 321.84375 138.1875 321.601562 137.589844 321.417969 C 136.992188 321.238281 136.382812 321.121094 135.757812 321.066406 C 135.136719 321.011719 134.515625 321.027344 133.898438 321.101562 C 93.457031 325.441406 84.558594 295.808594 84.558594 295.808594 C 76.542969 275.441406 65 270 65 270 C 49.042969 259.042969 66.175781 259.265625 66.175781 259.265625 C 68.96875 259.652344 71.679688 260.351562 74.3125 261.359375 C 76.941406 262.371094 79.425781 263.664062 81.757812 265.246094 C 84.089844 266.828125 86.214844 268.652344 88.128906 270.722656 C 90.039062 272.789062 91.695312 275.050781 93.089844 277.5 C 93.605469 278.5 94.167969 279.476562 94.777344 280.425781 C 95.386719 281.371094 96.039062 282.289062 96.734375 283.175781 C 97.429688 284.066406 98.164062 284.917969 98.9375 285.734375 C 99.710938 286.554688 100.523438 287.335938 101.371094 288.078125 C 102.21875 288.820312 103.101562 289.519531 104.015625 290.179688 C 104.925781 290.839844 105.871094 291.457031 106.839844 292.027344 C 107.8125 292.601562 108.808594 293.125 109.828125 293.605469 C 110.847656 294.082031 111.890625 294.511719 112.949219 294.894531 C 114.011719 295.273438 115.085938 295.605469 116.175781 295.886719 C 117.269531 296.164062 118.371094 296.394531 119.484375 296.570312 C 120.597656 296.75 121.714844 296.871094 122.839844 296.945312 C 123.964844 297.015625 125.089844 297.035156 126.21875 297.003906 C 127.34375 296.972656 128.464844 296.886719 129.585938 296.746094 C 130.703125 296.609375 131.8125 296.417969 132.914062 296.175781 C 134.015625 295.933594 135.101562 295.640625 136.175781 295.296875 C 137.246094 294.953125 138.300781 294.558594 139.339844 294.117188 C 140.058594 293.855469 140.734375 293.511719 141.367188 293.074219 C 142 292.640625 142.566406 292.136719 143.066406 291.554688 C 143.570312 290.976562 143.992188 290.34375 144.332031 289.65625 C 144.671875 288.96875 144.917969 288.25 145.074219 287.5 C 145.714844 284.667969 146.621094 281.921875 147.792969 279.265625 C 147.945312 278.957031 148.074219 278.640625 148.1875 278.320312 C 148.300781 277.996094 148.398438 277.667969 148.472656 277.335938 C 148.550781 277.003906 148.605469 276.667969 148.644531 276.328125 C 148.683594 275.988281 148.703125 275.644531 148.703125 275.304688 C 148.703125 274.960938 148.679688 274.621094 148.640625 274.28125 C 148.601562 273.941406 148.546875 273.605469 148.46875 273.273438 C 148.390625 272.941406 148.296875 272.613281 148.179688 272.289062 C 148.066406 271.96875 147.933594 271.652344 147.785156 271.347656 C 147.632812 271.039062 147.46875 270.742188 147.28125 270.453125 C 147.097656 270.164062 146.898438 269.886719 146.683594 269.621094 C 146.46875 269.355469 146.238281 269.105469 145.996094 268.863281 C 145.753906 268.625 145.496094 268.398438 145.226562 268.1875 C 144.957031 267.980469 144.675781 267.785156 144.382812 267.605469 C 144.09375 267.425781 143.792969 267.265625 143.484375 267.121094 C 143.171875 266.976562 142.855469 266.847656 142.53125 266.742188 C 142.207031 266.632812 141.878906 266.542969 141.542969 266.46875 C 107.207031 259.78125 75.367188 240.957031 75.367188 181.324219 C 75.316406 177.707031 75.546875 174.109375 76.066406 170.53125 C 76.582031 166.953125 77.378906 163.4375 78.453125 159.984375 C 79.527344 156.53125 80.867188 153.1875 82.46875 149.945312 C 84.074219 146.703125 85.921875 143.609375 88.015625 140.660156 C 88.785156 139.617188 89.4375 138.507812 89.972656 137.324219 C 90.507812 136.144531 90.910156 134.917969 91.183594 133.648438 C 91.457031 132.382812 91.589844 131.097656 91.589844 129.800781 C 91.589844 128.503906 91.449219 127.222656 91.175781 125.957031 C 89.515625 117.621094 89.515625 109.289062 91.175781 100.957031 C 91.285156 100.40625 91.421875 99.859375 91.589844 99.324219 C 91.753906 98.785156 91.949219 98.257812 92.167969 97.742188 C 92.390625 97.226562 92.636719 96.722656 92.910156 96.230469 C 93.183594 95.738281 93.484375 95.261719 93.804688 94.800781 C 94.128906 94.34375 94.476562 93.898438 94.84375 93.476562 C 95.214844 93.050781 95.601562 92.648438 96.015625 92.265625 C 96.425781 91.882812 96.855469 91.519531 97.304688 91.183594 C 97.753906 90.84375 98.21875 90.53125 98.699219 90.238281 C 99.183594 89.949219 99.675781 89.683594 100.1875 89.445312 C 100.695312 89.207031 101.214844 88.996094 101.746094 88.8125 C 102.277344 88.628906 102.816406 88.472656 103.363281 88.34375 C 103.914062 88.21875 104.464844 88.117188 105.023438 88.046875 C 105.582031 87.976562 106.140625 87.9375 106.703125 87.925781 C 107.265625 87.914062 107.824219 87.929688 108.386719 87.976562 C 108.945312 88.023438 109.503906 88.097656 110.054688 88.203125 C 110.605469 88.308594 111.152344 88.441406 111.691406 88.601562 C 120.726562 91.558594 129.234375 95.628906 137.207031 100.808594 C 139.347656 102.09375 141.652344 102.929688 144.121094 103.308594 C 146.589844 103.691406 149.039062 103.59375 151.46875 103.015625 C 163.394531 100.355469 175.464844 99.023438 187.683594 99.023438 C 199.902344 99.023438 211.972656 100.355469 223.898438 103.015625 C 226.328125 103.59375 228.777344 103.691406 231.246094 103.308594 C 233.714844 102.929688 236.019531 102.09375 238.160156 100.808594 C 245.921875 95.78125 254.179688 91.785156 262.941406 88.824219 C 263.507812 88.652344 264.082031 88.507812 264.664062 88.398438 C 265.246094 88.289062 265.832031 88.207031 266.425781 88.160156 C 267.015625 88.113281 267.605469 88.097656 268.199219 88.113281 C 268.792969 88.128906 269.382812 88.175781 269.96875 88.257812 C 270.554688 88.335938 271.136719 88.445312 271.710938 88.585938 C 272.289062 88.730469 272.855469 88.902344 273.410156 89.105469 C 273.96875 89.308594 274.511719 89.539062 275.042969 89.800781 C 275.574219 90.0625 276.09375 90.347656 276.59375 90.667969 C 277.09375 90.984375 277.578125 91.324219 278.042969 91.695312 C 278.503906 92.0625 278.949219 92.453125 279.371094 92.871094 C 279.792969 93.285156 280.191406 93.722656 280.566406 94.183594 C 280.941406 94.640625 281.289062 95.121094 281.613281 95.617188 C 281.9375 96.113281 282.234375 96.625 282.503906 97.152344 C 282.769531 97.679688 283.011719 98.222656 283.222656 98.777344 C 283.429688 99.328125 283.613281 99.894531 283.761719 100.464844 C 283.910156 101.039062 284.03125 101.621094 284.117188 102.207031 C 285.652344 110.195312 285.652344 118.1875 284.117188 126.175781 C 283.84375 127.445312 283.707031 128.726562 283.703125 130.023438 C 283.703125 131.320312 283.839844 132.601562 284.113281 133.871094 C 284.382812 135.136719 284.789062 136.363281 285.320312 137.546875 C 285.855469 138.726562 286.507812 139.839844 287.28125 140.882812 C 289.371094 143.832031 291.222656 146.925781 292.824219 150.164062 C 294.429688 153.40625 295.765625 156.753906 296.839844 160.207031 C 297.914062 163.660156 298.710938 167.175781 299.226562 170.753906 C 299.746094 174.332031 299.976562 177.929688 299.925781 181.542969 C 299.925781 241.324219 268.015625 260 233.75 266.617188 C 233.417969 266.679688 233.089844 266.761719 232.769531 266.863281 C 232.445312 266.964844 232.132812 267.082031 231.824219 267.21875 C 231.515625 267.355469 231.214844 267.507812 230.921875 267.679688 C 230.632812 267.847656 230.351562 268.035156 230.082031 268.238281 C 229.8125 268.441406 229.554688 268.65625 229.308594 268.886719 C 229.0625 269.121094 228.832031 269.363281 228.613281 269.625 C 228.394531 269.882812 228.195312 270.152344 228.007812 270.433594 C 227.820312 270.710938 227.648438 271.003906 227.496094 271.304688 C 227.34375 271.605469 227.207031 271.914062 227.085938 272.230469 C 226.96875 272.542969 226.867188 272.867188 226.785156 273.195312 C 226.703125 273.519531 226.640625 273.851562 226.597656 274.1875 C 226.550781 274.519531 226.527344 274.855469 226.519531 275.195312 C 226.515625 275.53125 226.527344 275.867188 226.558594 276.203125 C 226.589844 276.539062 226.644531 276.875 226.710938 277.203125 C 226.78125 277.535156 226.871094 277.859375 226.976562 278.179688 C 227.085938 278.5 227.210938 278.8125 227.351562 279.117188 C 230.421875 286.152344 231.894531 293.503906 231.765625 301.175781 L 231.765625 349.632812 C 231.765625 349.632812 234.265625 359.558594 243.234375 358.089844 Z M 243.234375 358.089844 " fill-opacity="1" fill-rule="nonzero"/></svg>