<svg xmlns="http://www.w3.org/2000/svg" xmlns:xlink="http://www.w3.org/1999/xlink" width="500" zoomAndPan="magnify" viewBox="0 0 375 374.999991" height="500" preserveAspectRatio="xMidYMid meet" version="1.0"><defs><g/></defs><g fill="#ff00ff" fill-opacity="1"><g transform="translate(-3.888465, 267.426986)"><g><path d="M 99.46875 37.21875 C 95.0625 37.082031 91.0625 36.335938 87.46875 34.984375 C 83.875 33.628906 80.648438 31.796875 77.796875 29.484375 C 74.953125 27.179688 72.492188 24.503906 70.421875 21.453125 C 68.359375 18.410156 66.628906 15.140625 65.234375 11.640625 C 63.847656 8.148438 62.816406 4.554688 62.140625 0.859375 C 61.460938 -2.828125 61.125 -6.46875 61.125 -10.0625 L 61.125 -27.25 C 61.125 -37.019531 58.800781 -44.109375 54.15625 -48.515625 C 49.507812 -52.921875 42.40625 -55.160156 32.84375 -55.234375 L 32.84375 -69.96875 C 42.40625 -69.96875 49.507812 -72.15625 54.15625 -76.53125 C 58.800781 -80.90625 61.125 -88.007812 61.125 -97.84375 L 61.125 -115.140625 C 61.125 -118.722656 61.425781 -122.363281 62.03125 -126.0625 C 62.644531 -129.757812 63.597656 -133.351562 64.890625 -136.84375 C 66.179688 -140.332031 67.828125 -143.601562 69.828125 -146.65625 C 71.828125 -149.707031 74.25 -152.382812 77.09375 -154.6875 C 79.9375 -157 83.207031 -158.832031 86.90625 -160.1875 C 90.601562 -161.539062 94.789062 -162.285156 99.46875 -162.421875 L 101.609375 -150.734375 C 96.722656 -150.597656 92.835938 -149.441406 89.953125 -147.265625 C 87.078125 -145.097656 84.910156 -142.335938 83.453125 -138.984375 C 81.992188 -135.628906 81.0625 -131.847656 80.65625 -127.640625 C 80.25 -123.441406 80.046875 -119.273438 80.046875 -115.140625 L 80.046875 -97.84375 C 79.972656 -89.707031 78.070312 -82.570312 74.34375 -76.4375 C 70.613281 -70.300781 64.816406 -65.640625 56.953125 -62.453125 C 64.816406 -59.328125 70.613281 -54.695312 74.34375 -48.5625 C 78.070312 -42.425781 79.972656 -35.320312 80.046875 -27.25 L 80.046875 -10.0625 C 80.046875 -5.863281 80.382812 -1.679688 81.0625 2.484375 C 81.738281 6.660156 82.90625 10.425781 84.5625 13.78125 C 86.226562 17.132812 88.429688 19.894531 91.171875 22.0625 C 93.921875 24.238281 97.398438 25.394531 101.609375 25.53125 Z M 99.46875 37.21875 "/></g></g></g><g fill="#ff00ff" fill-opacity="1"><g transform="translate(121.10336, 267.426986)"><g><path d="M 95.203125 -37.421875 C 95.203125 -41.972656 94.164062 -45.804688 92.09375 -48.921875 C 90.03125 -52.035156 87.367188 -54.660156 84.109375 -56.796875 C 80.859375 -58.929688 77.28125 -60.710938 73.375 -62.140625 C 69.476562 -63.566406 65.734375 -64.859375 62.140625 -66.015625 C 56.921875 -67.703125 51.613281 -69.734375 46.21875 -72.109375 C 40.832031 -74.484375 35.914062 -77.398438 31.46875 -80.859375 C 27.03125 -84.316406 23.40625 -88.398438 20.59375 -93.109375 C 17.78125 -97.828125 16.375 -103.375 16.375 -109.75 C 16.375 -116.113281 17.78125 -121.804688 20.59375 -126.828125 C 23.40625 -131.847656 27.082031 -136.085938 31.625 -139.546875 C 36.175781 -143.003906 41.332031 -145.628906 47.09375 -147.421875 C 52.851562 -149.222656 58.648438 -150.125 64.484375 -150.125 C 70.921875 -150.125 77.125 -149.054688 83.09375 -146.921875 C 89.0625 -144.785156 94.347656 -141.785156 98.953125 -137.921875 C 103.566406 -134.054688 107.265625 -129.375 110.046875 -123.875 C 112.828125 -118.382812 114.285156 -112.25 114.421875 -105.46875 L 95.09375 -105.46875 C 94.550781 -109.738281 93.5 -113.617188 91.9375 -117.109375 C 90.382812 -120.609375 88.316406 -123.609375 85.734375 -126.109375 C 83.160156 -128.617188 80.09375 -130.566406 76.53125 -131.953125 C 72.96875 -133.347656 68.953125 -134.046875 64.484375 -134.046875 C 60.890625 -134.046875 57.378906 -133.535156 53.953125 -132.515625 C 50.523438 -131.503906 47.472656 -129.976562 44.796875 -127.9375 C 42.117188 -125.90625 39.984375 -123.398438 38.390625 -120.421875 C 36.796875 -117.441406 36 -113.984375 36 -110.046875 C 36.070312 -105.773438 37.15625 -102.164062 39.25 -99.21875 C 41.351562 -96.269531 44.015625 -93.773438 47.234375 -91.734375 C 50.460938 -89.703125 53.957031 -88.007812 57.71875 -86.65625 C 61.476562 -85.300781 65.019531 -84.113281 68.34375 -83.09375 C 72.007812 -81.9375 75.707031 -80.628906 79.4375 -79.171875 C 83.164062 -77.722656 86.757812 -76.046875 90.21875 -74.140625 C 93.675781 -72.242188 96.894531 -70.109375 99.875 -67.734375 C 102.863281 -65.359375 105.472656 -62.660156 107.703125 -59.640625 C 109.941406 -56.628906 111.6875 -53.3125 112.9375 -49.6875 C 114.195312 -46.0625 114.828125 -42.039062 114.828125 -37.625 C 114.828125 -30.988281 113.351562 -25.191406 110.40625 -20.234375 C 107.457031 -15.285156 103.640625 -11.164062 98.953125 -7.875 C 94.273438 -4.59375 88.988281 -2.117188 83.09375 -0.453125 C 77.195312 1.203125 71.296875 2.03125 65.390625 2.03125 C 58.816406 2.03125 52.375 1.015625 46.0625 -1.015625 C 39.757812 -3.046875 34.113281 -5.976562 29.125 -9.8125 C 24.144531 -13.644531 20.097656 -18.320312 16.984375 -23.84375 C 13.867188 -29.375 12.207031 -35.664062 12 -42.71875 L 31.21875 -42.71875 C 31.832031 -38.101562 33.085938 -34.015625 34.984375 -30.453125 C 36.878906 -26.898438 39.316406 -23.882812 42.296875 -21.40625 C 45.285156 -18.9375 48.726562 -17.070312 52.625 -15.8125 C 56.53125 -14.5625 60.785156 -13.9375 65.390625 -13.9375 C 69.054688 -13.9375 72.664062 -14.394531 76.21875 -15.3125 C 79.78125 -16.226562 82.953125 -17.648438 85.734375 -19.578125 C 88.515625 -21.515625 90.785156 -23.957031 92.546875 -26.90625 C 94.316406 -29.851562 95.203125 -33.359375 95.203125 -37.421875 Z M 95.203125 -37.421875 "/></g></g></g><g fill="#ff00ff" fill-opacity="1"><g transform="translate(246.095185, 267.426986)"><g><path d="M 32.84375 25.53125 C 36.988281 25.394531 40.445312 24.238281 43.21875 22.0625 C 46 19.894531 48.21875 17.132812 49.875 13.78125 C 51.539062 10.425781 52.726562 6.660156 53.4375 2.484375 C 54.15625 -1.679688 54.515625 -5.863281 54.515625 -10.0625 L 54.515625 -27.25 C 54.515625 -35.320312 56.378906 -42.425781 60.109375 -48.5625 C 63.835938 -54.695312 69.632812 -59.328125 77.5 -62.453125 C 69.632812 -65.640625 63.835938 -70.300781 60.109375 -76.4375 C 56.378906 -82.570312 54.515625 -89.707031 54.515625 -97.84375 L 54.515625 -115.140625 C 54.515625 -119.273438 54.289062 -123.441406 53.84375 -127.640625 C 53.40625 -131.847656 52.457031 -135.628906 51 -138.984375 C 49.539062 -142.335938 47.390625 -145.097656 44.546875 -147.265625 C 41.703125 -149.441406 37.835938 -150.597656 32.953125 -150.734375 L 34.984375 -162.421875 C 39.660156 -162.285156 43.847656 -161.539062 47.546875 -160.1875 C 51.242188 -158.832031 54.515625 -157 57.359375 -154.6875 C 60.210938 -152.382812 62.640625 -149.707031 64.640625 -146.65625 C 66.640625 -143.601562 68.28125 -140.332031 69.5625 -136.84375 C 70.851562 -133.351562 71.800781 -129.757812 72.40625 -126.0625 C 73.019531 -122.363281 73.328125 -118.722656 73.328125 -115.140625 L 73.328125 -97.84375 C 73.328125 -88.007812 75.664062 -80.90625 80.34375 -76.53125 C 85.019531 -72.15625 92.109375 -69.96875 101.609375 -69.96875 L 101.609375 -55.234375 C 92.109375 -55.160156 85.019531 -52.921875 80.34375 -48.515625 C 75.664062 -44.109375 73.328125 -37.019531 73.328125 -27.25 L 73.328125 -10.0625 C 73.328125 -4.644531 72.582031 0.820312 71.09375 6.34375 C 69.601562 11.875 67.28125 16.910156 64.125 21.453125 C 60.96875 26.003906 56.984375 29.734375 52.171875 32.640625 C 47.359375 35.554688 41.628906 37.082031 34.984375 37.21875 Z M 32.84375 25.53125 "/></g></g></g><g fill="#00ffff" fill-opacity="1"><g transform="translate(3.922689, 267.426986)"><g><path d="M 99.46875 37.21875 C 95.0625 37.082031 91.0625 36.335938 87.46875 34.984375 C 83.875 33.628906 80.648438 31.796875 77.796875 29.484375 C 74.953125 27.179688 72.492188 24.503906 70.421875 21.453125 C 68.359375 18.410156 66.628906 15.140625 65.234375 11.640625 C 63.847656 8.148438 62.816406 4.554688 62.140625 0.859375 C 61.460938 -2.828125 61.125 -6.46875 61.125 -10.0625 L 61.125 -27.25 C 61.125 -37.019531 58.800781 -44.109375 54.15625 -48.515625 C 49.507812 -52.921875 42.40625 -55.160156 32.84375 -55.234375 L 32.84375 -69.96875 C 42.40625 -69.96875 49.507812 -72.15625 54.15625 -76.53125 C 58.800781 -80.90625 61.125 -88.007812 61.125 -97.84375 L 61.125 -115.140625 C 61.125 -118.722656 61.425781 -122.363281 62.03125 -126.0625 C 62.644531 -129.757812 63.597656 -133.351562 64.890625 -136.84375 C 66.179688 -140.332031 67.828125 -143.601562 69.828125 -146.65625 C 71.828125 -149.707031 74.25 -152.382812 77.09375 -154.6875 C 79.9375 -157 83.207031 -158.832031 86.90625 -160.1875 C 90.601562 -161.539062 94.789062 -162.285156 99.46875 -162.421875 L 101.609375 -150.734375 C 96.722656 -150.597656 92.835938 -149.441406 89.953125 -147.265625 C 87.078125 -145.097656 84.910156 -142.335938 83.453125 -138.984375 C 81.992188 -135.628906 81.0625 -131.847656 80.65625 -127.640625 C 80.25 -123.441406 80.046875 -119.273438 80.046875 -115.140625 L 80.046875 -97.84375 C 79.972656 -89.707031 78.070312 -82.570312 74.34375 -76.4375 C 70.613281 -70.300781 64.816406 -65.640625 56.953125 -62.453125 C 64.816406 -59.328125 70.613281 -54.695312 74.34375 -48.5625 C 78.070312 -42.425781 79.972656 -35.320312 80.046875 -27.25 L 80.046875 -10.0625 C 80.046875 -5.863281 80.382812 -1.679688 81.0625 2.484375 C 81.738281 6.660156 82.90625 10.425781 84.5625 13.78125 C 86.226562 17.132812 88.429688 19.894531 91.171875 22.0625 C 93.921875 24.238281 97.398438 25.394531 101.609375 25.53125 Z M 99.46875 37.21875 "/></g></g></g><g fill="#00ffff" fill-opacity="1"><g transform="translate(128.914514, 267.426986)"><g><path d="M 95.203125 -37.421875 C 95.203125 -41.972656 94.164062 -45.804688 92.09375 -48.921875 C 90.03125 -52.035156 87.367188 -54.660156 84.109375 -56.796875 C 80.859375 -58.929688 77.28125 -60.710938 73.375 -62.140625 C 69.476562 -63.566406 65.734375 -64.859375 62.140625 -66.015625 C 56.921875 -67.703125 51.613281 -69.734375 46.21875 -72.109375 C 40.832031 -74.484375 35.914062 -77.398438 31.46875 -80.859375 C 27.03125 -84.316406 23.40625 -88.398438 20.59375 -93.109375 C 17.78125 -97.828125 16.375 -103.375 16.375 -109.75 C 16.375 -116.113281 17.78125 -121.804688 20.59375 -126.828125 C 23.40625 -131.847656 27.082031 -136.085938 31.625 -139.546875 C 36.175781 -143.003906 41.332031 -145.628906 47.09375 -147.421875 C 52.851562 -149.222656 58.648438 -150.125 64.484375 -150.125 C 70.921875 -150.125 77.125 -149.054688 83.09375 -146.921875 C 89.0625 -144.785156 94.347656 -141.785156 98.953125 -137.921875 C 103.566406 -134.054688 107.265625 -129.375 110.046875 -123.875 C 112.828125 -118.382812 114.285156 -112.25 114.421875 -105.46875 L 95.09375 -105.46875 C 94.550781 -109.738281 93.5 -113.617188 91.9375 -117.109375 C 90.382812 -120.609375 88.316406 -123.609375 85.734375 -126.109375 C 83.160156 -128.617188 80.09375 -130.566406 76.53125 -131.953125 C 72.96875 -133.347656 68.953125 -134.046875 64.484375 -134.046875 C 60.890625 -134.046875 57.378906 -133.535156 53.953125 -132.515625 C 50.523438 -131.503906 47.472656 -129.976562 44.796875 -127.9375 C 42.117188 -125.90625 39.984375 -123.398438 38.390625 -120.421875 C 36.796875 -117.441406 36 -113.984375 36 -110.046875 C 36.070312 -105.773438 37.15625 -102.164062 39.25 -99.21875 C 41.351562 -96.269531 44.015625 -93.773438 47.234375 -91.734375 C 50.460938 -89.703125 53.957031 -88.007812 57.71875 -86.65625 C 61.476562 -85.300781 65.019531 -84.113281 68.34375 -83.09375 C 72.007812 -81.9375 75.707031 -80.628906 79.4375 -79.171875 C 83.164062 -77.722656 86.757812 -76.046875 90.21875 -74.140625 C 93.675781 -72.242188 96.894531 -70.109375 99.875 -67.734375 C 102.863281 -65.359375 105.472656 -62.660156 107.703125 -59.640625 C 109.941406 -56.628906 111.6875 -53.3125 112.9375 -49.6875 C 114.195312 -46.0625 114.828125 -42.039062 114.828125 -37.625 C 114.828125 -30.988281 113.351562 -25.191406 110.40625 -20.234375 C 107.457031 -15.285156 103.640625 -11.164062 98.953125 -7.875 C 94.273438 -4.59375 88.988281 -2.117188 83.09375 -0.453125 C 77.195312 1.203125 71.296875 2.03125 65.390625 2.03125 C 58.816406 2.03125 52.375 1.015625 46.0625 -1.015625 C 39.757812 -3.046875 34.113281 -5.976562 29.125 -9.8125 C 24.144531 -13.644531 20.097656 -18.320312 16.984375 -23.84375 C 13.867188 -29.375 12.207031 -35.664062 12 -42.71875 L 31.21875 -42.71875 C 31.832031 -38.101562 33.085938 -34.015625 34.984375 -30.453125 C 36.878906 -26.898438 39.316406 -23.882812 42.296875 -21.40625 C 45.285156 -18.9375 48.726562 -17.070312 52.625 -15.8125 C 56.53125 -14.5625 60.785156 -13.9375 65.390625 -13.9375 C 69.054688 -13.9375 72.664062 -14.394531 76.21875 -15.3125 C 79.78125 -16.226562 82.953125 -17.648438 85.734375 -19.578125 C 88.515625 -21.515625 90.785156 -23.957031 92.546875 -26.90625 C 94.316406 -29.851562 95.203125 -33.359375 95.203125 -37.421875 Z M 95.203125 -37.421875 "/></g></g></g><g fill="#00ffff" fill-opacity="1"><g transform="translate(253.906339, 267.426986)"><g><path d="M 32.84375 25.53125 C 36.988281 25.394531 40.445312 24.238281 43.21875 22.0625 C 46 19.894531 48.21875 17.132812 49.875 13.78125 C 51.539062 10.425781 52.726562 6.660156 53.4375 2.484375 C 54.15625 -1.679688 54.515625 -5.863281 54.515625 -10.0625 L 54.515625 -27.25 C 54.515625 -35.320312 56.378906 -42.425781 60.109375 -48.5625 C 63.835938 -54.695312 69.632812 -59.328125 77.5 -62.453125 C 69.632812 -65.640625 63.835938 -70.300781 60.109375 -76.4375 C 56.378906 -82.570312 54.515625 -89.707031 54.515625 -97.84375 L 54.515625 -115.140625 C 54.515625 -119.273438 54.289062 -123.441406 53.84375 -127.640625 C 53.40625 -131.847656 52.457031 -135.628906 51 -138.984375 C 49.539062 -142.335938 47.390625 -145.097656 44.546875 -147.265625 C 41.703125 -149.441406 37.835938 -150.597656 32.953125 -150.734375 L 34.984375 -162.421875 C 39.660156 -162.285156 43.847656 -161.539062 47.546875 -160.1875 C 51.242188 -158.832031 54.515625 -157 57.359375 -154.6875 C 60.210938 -152.382812 62.640625 -149.707031 64.640625 -146.65625 C 66.640625 -143.601562 68.28125 -140.332031 69.5625 -136.84375 C 70.851562 -133.351562 71.800781 -129.757812 72.40625 -126.0625 C 73.019531 -122.363281 73.328125 -118.722656 73.328125 -115.140625 L 73.328125 -97.84375 C 73.328125 -88.007812 75.664062 -80.90625 80.34375 -76.53125 C 85.019531 -72.15625 92.109375 -69.96875 101.609375 -69.96875 L 101.609375 -55.234375 C 92.109375 -55.160156 85.019531 -52.921875 80.34375 -48.515625 C 75.664062 -44.109375 73.328125 -37.019531 73.328125 -27.25 L 73.328125 -10.0625 C 73.328125 -4.644531 72.582031 0.820312 71.09375 6.34375 C 69.601562 11.875 67.28125 16.910156 64.125 21.453125 C 60.96875 26.003906 56.984375 29.734375 52.171875 32.640625 C 47.359375 35.554688 41.628906 37.082031 34.984375 37.21875 Z M 32.84375 25.53125 "/></g></g></g><g fill="#f4f9f9" fill-opacity="1"><g transform="translate(0.0171122, 267.426986)"><g><path d="M 99.46875 37.21875 C 95.0625 37.082031 91.0625 36.335938 87.46875 34.984375 C 83.875 33.628906 80.648438 31.796875 77.796875 29.484375 C 74.953125 27.179688 72.492188 24.503906 70.421875 21.453125 C 68.359375 18.410156 66.628906 15.140625 65.234375 11.640625 C 63.847656 8.148438 62.816406 4.554688 62.140625 0.859375 C 61.460938 -2.828125 61.125 -6.46875 61.125 -10.0625 L 61.125 -27.25 C 61.125 -37.019531 58.800781 -44.109375 54.15625 -48.515625 C 49.507812 -52.921875 42.40625 -55.160156 32.84375 -55.234375 L 32.84375 -69.96875 C 42.40625 -69.96875 49.507812 -72.15625 54.15625 -76.53125 C 58.800781 -80.90625 61.125 -88.007812 61.125 -97.84375 L 61.125 -115.140625 C 61.125 -118.722656 61.425781 -122.363281 62.03125 -126.0625 C 62.644531 -129.757812 63.597656 -133.351562 64.890625 -136.84375 C 66.179688 -140.332031 67.828125 -143.601562 69.828125 -146.65625 C 71.828125 -149.707031 74.25 -152.382812 77.09375 -154.6875 C 79.9375 -157 83.207031 -158.832031 86.90625 -160.1875 C 90.601562 -161.539062 94.789062 -162.285156 99.46875 -162.421875 L 101.609375 -150.734375 C 96.722656 -150.597656 92.835938 -149.441406 89.953125 -147.265625 C 87.078125 -145.097656 84.910156 -142.335938 83.453125 -138.984375 C 81.992188 -135.628906 81.0625 -131.847656 80.65625 -127.640625 C 80.25 -123.441406 80.046875 -119.273438 80.046875 -115.140625 L 80.046875 -97.84375 C 79.972656 -89.707031 78.070312 -82.570312 74.34375 -76.4375 C 70.613281 -70.300781 64.816406 -65.640625 56.953125 -62.453125 C 64.816406 -59.328125 70.613281 -54.695312 74.34375 -48.5625 C 78.070312 -42.425781 79.972656 -35.320312 80.046875 -27.25 L 80.046875 -10.0625 C 80.046875 -5.863281 80.382812 -1.679688 81.0625 2.484375 C 81.738281 6.660156 82.90625 10.425781 84.5625 13.78125 C 86.226562 17.132812 88.429688 19.894531 91.171875 22.0625 C 93.921875 24.238281 97.398438 25.394531 101.609375 25.53125 Z M 99.46875 37.21875 "/></g></g></g><g fill="#f4f9f9" fill-opacity="1"><g transform="translate(125.008937, 267.426986)"><g><path d="M 95.203125 -37.421875 C 95.203125 -41.972656 94.164062 -45.804688 92.09375 -48.921875 C 90.03125 -52.035156 87.367188 -54.660156 84.109375 -56.796875 C 80.859375 -58.929688 77.28125 -60.710938 73.375 -62.140625 C 69.476562 -63.566406 65.734375 -64.859375 62.140625 -66.015625 C 56.921875 -67.703125 51.613281 -69.734375 46.21875 -72.109375 C 40.832031 -74.484375 35.914062 -77.398438 31.46875 -80.859375 C 27.03125 -84.316406 23.40625 -88.398438 20.59375 -93.109375 C 17.78125 -97.828125 16.375 -103.375 16.375 -109.75 C 16.375 -116.113281 17.78125 -121.804688 20.59375 -126.828125 C 23.40625 -131.847656 27.082031 -136.085938 31.625 -139.546875 C 36.175781 -143.003906 41.332031 -145.628906 47.09375 -147.421875 C 52.851562 -149.222656 58.648438 -150.125 64.484375 -150.125 C 70.921875 -150.125 77.125 -149.054688 83.09375 -146.921875 C 89.0625 -144.785156 94.347656 -141.785156 98.953125 -137.921875 C 103.566406 -134.054688 107.265625 -129.375 110.046875 -123.875 C 112.828125 -118.382812 114.285156 -112.25 114.421875 -105.46875 L 95.09375 -105.46875 C 94.550781 -109.738281 93.5 -113.617188 91.9375 -117.109375 C 90.382812 -120.609375 88.316406 -123.609375 85.734375 -126.109375 C 83.160156 -128.617188 80.09375 -130.566406 76.53125 -131.953125 C 72.96875 -133.347656 68.953125 -134.046875 64.484375 -134.046875 C 60.890625 -134.046875 57.378906 -133.535156 53.953125 -132.515625 C 50.523438 -131.503906 47.472656 -129.976562 44.796875 -127.9375 C 42.117188 -125.90625 39.984375 -123.398438 38.390625 -120.421875 C 36.796875 -117.441406 36 -113.984375 36 -110.046875 C 36.070312 -105.773438 37.15625 -102.164062 39.25 -99.21875 C 41.351562 -96.269531 44.015625 -93.773438 47.234375 -91.734375 C 50.460938 -89.703125 53.957031 -88.007812 57.71875 -86.65625 C 61.476562 -85.300781 65.019531 -84.113281 68.34375 -83.09375 C 72.007812 -81.9375 75.707031 -80.628906 79.4375 -79.171875 C 83.164062 -77.722656 86.757812 -76.046875 90.21875 -74.140625 C 93.675781 -72.242188 96.894531 -70.109375 99.875 -67.734375 C 102.863281 -65.359375 105.472656 -62.660156 107.703125 -59.640625 C 109.941406 -56.628906 111.6875 -53.3125 112.9375 -49.6875 C 114.195312 -46.0625 114.828125 -42.039062 114.828125 -37.625 C 114.828125 -30.988281 113.351562 -25.191406 110.40625 -20.234375 C 107.457031 -15.285156 103.640625 -11.164062 98.953125 -7.875 C 94.273438 -4.59375 88.988281 -2.117188 83.09375 -0.453125 C 77.195312 1.203125 71.296875 2.03125 65.390625 2.03125 C 58.816406 2.03125 52.375 1.015625 46.0625 -1.015625 C 39.757812 -3.046875 34.113281 -5.976562 29.125 -9.8125 C 24.144531 -13.644531 20.097656 -18.320312 16.984375 -23.84375 C 13.867188 -29.375 12.207031 -35.664062 12 -42.71875 L 31.21875 -42.71875 C 31.832031 -38.101562 33.085938 -34.015625 34.984375 -30.453125 C 36.878906 -26.898438 39.316406 -23.882812 42.296875 -21.40625 C 45.285156 -18.9375 48.726562 -17.070312 52.625 -15.8125 C 56.53125 -14.5625 60.785156 -13.9375 65.390625 -13.9375 C 69.054688 -13.9375 72.664062 -14.394531 76.21875 -15.3125 C 79.78125 -16.226562 82.953125 -17.648438 85.734375 -19.578125 C 88.515625 -21.515625 90.785156 -23.957031 92.546875 -26.90625 C 94.316406 -29.851562 95.203125 -33.359375 95.203125 -37.421875 Z M 95.203125 -37.421875 "/></g></g></g><g fill="#f4f9f9" fill-opacity="1"><g transform="translate(250.000762, 267.426986)"><g><path d="M 32.84375 25.53125 C 36.988281 25.394531 40.445312 24.238281 43.21875 22.0625 C 46 19.894531 48.21875 17.132812 49.875 13.78125 C 51.539062 10.425781 52.726562 6.660156 53.4375 2.484375 C 54.15625 -1.679688 54.515625 -5.863281 54.515625 -10.0625 L 54.515625 -27.25 C 54.515625 -35.320312 56.378906 -42.425781 60.109375 -48.5625 C 63.835938 -54.695312 69.632812 -59.328125 77.5 -62.453125 C 69.632812 -65.640625 63.835938 -70.300781 60.109375 -76.4375 C 56.378906 -82.570312 54.515625 -89.707031 54.515625 -97.84375 L 54.515625 -115.140625 C 54.515625 -119.273438 54.289062 -123.441406 53.84375 -127.640625 C 53.40625 -131.847656 52.457031 -135.628906 51 -138.984375 C 49.539062 -142.335938 47.390625 -145.097656 44.546875 -147.265625 C 41.703125 -149.441406 37.835938 -150.597656 32.953125 -150.734375 L 34.984375 -162.421875 C 39.660156 -162.285156 43.847656 -161.539062 47.546875 -160.1875 C 51.242188 -158.832031 54.515625 -157 57.359375 -154.6875 C 60.210938 -152.382812 62.640625 -149.707031 64.640625 -146.65625 C 66.640625 -143.601562 68.28125 -140.332031 69.5625 -136.84375 C 70.851562 -133.351562 71.800781 -129.757812 72.40625 -126.0625 C 73.019531 -122.363281 73.328125 -118.722656 73.328125 -115.140625 L 73.328125 -97.84375 C 73.328125 -88.007812 75.664062 -80.90625 80.34375 -76.53125 C 85.019531 -72.15625 92.109375 -69.96875 101.609375 -69.96875 L 101.609375 -55.234375 C 92.109375 -55.160156 85.019531 -52.921875 80.34375 -48.515625 C 75.664062 -44.109375 73.328125 -37.019531 73.328125 -27.25 L 73.328125 -10.0625 C 73.328125 -4.644531 72.582031 0.820312 71.09375 6.34375 C 69.601562 11.875 67.28125 16.910156 64.125 21.453125 C 60.96875 26.003906 56.984375 29.734375 52.171875 32.640625 C 47.359375 35.554688 41.628906 37.082031 34.984375 37.21875 Z M 32.84375 25.53125 "/></g></g></g></svg>